<?xml version="1.0" encoding="UTF-8"?>
<svg width="360px" height="360px" viewBox="0 0 360 360" version="1.1" xmlns="http://www.w3.org/2000/svg" xmlns:xlink="http://www.w3.org/1999/xlink">
    <!-- Generator: Sketch 55.2 (78181) - https://sketchapp.com -->
    <title>CatenMusicLogo</title>
    <desc>Created with Sketch.</desc>
    <g id="Page-1" stroke="none" stroke-width="1" fill="none" fill-rule="evenodd">
        <circle id="橢圓形" fill="#FF7500" cx="180" cy="180" r="180"></circle>
        <path d="M191.886749,359.238184 C152.031646,365.972371 116.147415,346.654004 111.747298,316.107031 C107.351185,285.569218 136.112925,255.352603 175.970946,248.643034 C194.582905,245.498101 212.282431,248.096823 226.359584,254.797967 L182.008438,35.4100178 C180.741513,29.1606267 184.600959,22.958734 190.636784,21.5688251 C196.673695,20.1634582 202.576681,24.1149493 203.842495,30.3627436 L210.342114,62.5395175 C228.971332,75.9791077 262.301046,99.9498273 278.849809,111.458562 C302.548776,127.937603 333.182501,171.960612 316.87858,203.657302 C316.87858,203.657302 304.722533,171.37039 269.107316,145.162107 C247.686028,129.420351 231.743202,123.995218 222.389697,122.157125 L256.527716,291.016168 C256.864776,292.719207 256.800641,294.415538 256.45042,296.00688 C257.758258,325.062356 229.904661,352.833945 191.886749,359.238184 Z" id="路徑" fill="#FFFFFF" fill-rule="nonzero"></path>
    </g>
</svg>