<?xml version="1.0" encoding="UTF-8"?>
<svg width="640px" height="640px" viewBox="0 0 640 640" version="1.1" xmlns="http://www.w3.org/2000/svg" xmlns:xlink="http://www.w3.org/1999/xlink" style="background: #FFFFFF;">
    <!-- Generator: Sketch 52.6 (67491) - http://www.bohemiancoding.com/sketch -->
    <title>未命名 2</title>
    <desc>Created with Sketch.</desc>
    <g id="Page-2" stroke="none" stroke-width="1" fill="none" fill-rule="evenodd">
        <path d="M320,640 C143.26888,640 0,496.73112 0,320 C0,143.26888 143.26888,0 320,0 C496.73112,0 640,143.26888 640,320 C640,496.73112 496.73112,640 320,640 Z M301,97 L230,97 L230,137 L301,137 L301,305 L338,305 L338,137 L409,137 L409,97 L338,97 L338,33 L301,33 L301,97 Z M125.307719,448.512 L125.523719,448.512 C128.763735,457.512045 131.841704,466.349957 134.757719,475.026 C137.673733,483.702043 140.283707,492.431956 142.587719,501.216 C143.523723,501.071999 144.459714,501 145.395719,501 C146.331723,501 147.267714,501 148.203719,501 C150.219729,501 152.05571,501.071999 153.711719,501.216 C154.863725,497.399981 156.213711,493.080024 157.761719,488.256 C159.309726,483.431976 160.91171,478.500025 162.567719,473.46 C164.223727,468.419975 165.87971,463.416025 167.535719,458.448 C169.191727,453.479975 170.739712,448.890021 172.179719,444.678 C173.619726,440.465979 174.879713,436.812015 175.959719,433.716 C177.039724,430.619985 177.831716,428.388007 178.335719,427.02 C177.471714,427.164001 176.625723,427.289999 175.797719,427.398 C174.969715,427.506001 174.159723,427.56 173.367719,427.56 C172.143713,427.56 170.631728,427.380002 168.831719,427.02 C168.327716,429.180011 167.463725,432.383979 166.239719,436.632 C165.015713,440.880021 163.647726,445.559974 162.135719,450.672 C160.623711,455.784026 159.057727,461.075973 157.437719,466.548 C155.817711,472.020027 154.287726,477.023977 152.847719,481.56 L152.631719,481.56 C151.983716,479.183988 151.155724,476.412016 150.147719,473.244 C149.139714,470.075984 148.041725,466.728018 146.853719,463.2 C145.665713,459.671982 144.477725,456.108018 143.289719,452.508 C142.101713,448.907982 140.985724,445.488016 139.941719,442.248 C138.897714,439.007984 137.979723,436.056013 137.187719,433.392 C136.395715,430.727987 135.85572,428.604008 135.567719,427.02 C134.631714,427.164001 133.731723,427.289999 132.867719,427.398 C132.003714,427.506001 131.103723,427.56 130.167719,427.56 C129.231714,427.56 128.331723,427.506001 127.467719,427.398 C126.603714,427.289999 125.703723,427.164001 124.767719,427.02 C123.975715,429.540013 122.859726,432.941979 121.419719,437.226 C119.979712,441.510021 118.395727,446.189975 116.667719,451.266 C114.93971,456.342025 113.157728,461.525974 111.321719,466.818 C109.48571,472.110026 107.775727,477.023977 106.191719,481.56 L105.975719,481.56 C104.967714,477.815981 103.869725,473.730022 102.681719,469.302 C101.493713,464.873978 100.269725,460.302024 99.0097188,455.586 C97.7497125,450.869976 96.5077249,446.082024 95.2837188,441.222 C94.0597126,436.361976 92.9077242,431.628023 91.8277188,427.02 C90.3877116,427.164001 88.9297261,427.289999 87.4537188,427.398 C85.9777114,427.506001 84.519726,427.56 83.0797188,427.56 C81.6397116,427.56 80.1637263,427.506001 78.6517188,427.398 C77.1397112,427.289999 75.5917267,427.164001 74.0077188,427.02 C74.2957202,427.740004 74.9077141,429.665984 75.8437188,432.798 C76.7797234,435.930016 77.9317119,439.727978 79.2997188,444.192 C80.6677256,448.656022 82.1437108,453.569973 83.7277188,458.934 C85.3117267,464.298027 86.8597112,469.607974 88.3717188,474.864 C89.8837263,480.120026 91.2877123,485.087977 92.5837188,489.768 C93.8797252,494.448023 94.9237148,498.263985 95.7157188,501.216 C96.6517234,501.071999 97.5877141,501 98.5237188,501 C99.4597234,501 100.395714,501 101.331719,501 C103.347729,501 105.18371,501.071999 106.839719,501.216 C107.991725,497.615982 109.359711,493.512023 110.943719,488.904 C112.527727,484.295977 114.16571,479.616024 115.857719,474.864 C117.549727,470.111976 119.22371,465.450023 120.879719,460.878 C122.535727,456.305977 124.011712,452.184018 125.307719,448.512 Z M246.267719,461.904 C246.267719,467.80803 245.601725,472.919978 244.269719,477.24 C242.937712,481.560022 241.17373,485.123986 238.977719,487.932 C236.781708,490.740014 234.207734,492.827993 231.255719,494.196 C228.303704,495.564007 225.207735,496.248 221.967719,496.248 C218.943704,496.248 216.063732,495.708005 213.327719,494.628 C210.591705,493.547995 208.179729,491.802012 206.091719,489.39 C204.003708,486.977988 202.347725,483.79202 201.123719,479.832 C199.899713,475.87198 199.287719,471.012029 199.287719,465.252 C199.287719,460.643977 199.809714,456.30602 200.853719,452.238 C201.897724,448.16998 203.427709,444.624015 205.443719,441.6 C207.459729,438.575985 209.925704,436.182009 212.841719,434.418 C215.757733,432.653991 219.0517,431.772 222.723719,431.772 C226.179736,431.772 229.365704,432.473993 232.281719,433.878 C235.197733,435.282007 237.681708,437.279987 239.733719,439.872 C241.785729,442.464013 243.387713,445.613981 244.539719,449.322 C245.691725,453.030019 246.267719,457.223977 246.267719,461.904 Z M181.575719,464.28 C181.575719,471.048034 182.655708,476.861976 184.815719,481.722 C186.97573,486.582024 189.9097,490.577984 193.617719,493.71 C197.325737,496.842016 201.681694,499.109993 206.685719,500.514 C211.689744,501.918007 217.03569,502.62 222.723719,502.62 C228.771749,502.62 234.315694,501.64801 239.355719,499.704 C244.395744,497.75999 248.733701,495.042017 252.369719,491.55 C256.005737,488.057983 258.849708,483.972023 260.901719,479.292 C262.953729,474.611977 263.979719,469.572027 263.979719,464.172 C263.979719,457.691968 262.917729,452.022024 260.793719,447.162 C258.669708,442.301976 255.771737,438.288016 252.099719,435.12 C248.4277,431.951984 244.107744,429.576008 239.139719,427.992 C234.171694,426.407992 228.807748,425.616 223.047719,425.616 C216.783687,425.616 211.095744,426.62399 205.983719,428.64 C200.871693,430.65601 196.515737,433.427982 192.915719,436.956 C189.315701,440.484018 186.525729,444.587977 184.545719,449.268 C182.565709,453.948023 181.575719,458.951973 181.575719,464.28 Z M310.419719,447.324 C310.419719,452.508026 309.159731,456.377987 306.639719,458.934 C304.119706,461.490013 300.483743,462.768 295.731719,462.768 C295.371717,462.768 294.993721,462.75 294.597719,462.714 C294.201717,462.678 293.787721,462.624 293.355719,462.552 C293.355719,452.759951 293.463718,442.968049 293.679719,433.176 C296.631734,433.176 299.169708,433.319999 301.293719,433.608 C303.417729,433.896001 305.145712,434.525995 306.477719,435.498 C307.809725,436.470005 308.799716,437.891991 309.447719,439.764 C310.095722,441.636009 310.419719,444.155984 310.419719,447.324 Z M293.355719,467.196 L294.327719,467.196 L313.659719,501.216 C315.315727,501.071999 316.953711,501 318.573719,501 C320.193727,501 321.83171,501 323.487719,501 C325.143727,501 326.763711,501 328.347719,501 C329.931727,501 331.55171,501.071999 333.207719,501.216 C329.247699,495.23997 325.287739,489.21003 321.327719,483.126 C317.367699,477.04197 313.659736,470.940031 310.203719,464.82 C315.603746,463.451993 319.743704,461.112017 322.623719,457.8 C325.503733,454.487983 326.943719,450.204026 326.943719,444.948 C326.943719,441.707984 326.313725,438.918012 325.053719,436.578 C323.793712,434.237988 322.08373,432.276008 319.923719,430.692 C318.987714,430.043997 317.997724,429.486002 316.953719,429.018 C315.909714,428.549998 314.685726,428.172001 313.281719,427.884 C311.877712,427.595999 310.203728,427.380001 308.259719,427.236 C306.315709,427.091999 303.975732,427.02 301.239719,427.02 C297.5677,427.02 294.489731,427.109999 292.005719,427.29 C289.521706,427.470001 287.307728,427.56 285.363719,427.56 C283.56371,427.56 281.943726,427.506001 280.503719,427.398 C279.063712,427.289999 277.731725,427.164001 276.507719,427.02 C276.79572,431.700023 277.011718,436.361977 277.155719,441.006 C277.299719,445.650023 277.371719,450.95997 277.371719,456.936 L277.371719,471.624 C277.371719,477.60003 277.299719,482.909977 277.155719,487.554 C277.011718,492.198023 276.79572,496.751978 276.507719,501.216 C277.731725,501.071999 279.063712,501 280.503719,501 C281.943726,501 283.56371,501 285.363719,501 C287.163728,501 288.783712,501 290.223719,501 C291.663726,501 292.995713,501.071999 294.219719,501.216 C293.931717,496.751978 293.715719,492.198023 293.571719,487.554 C293.427718,482.909977 293.355719,477.60003 293.355719,471.624 L293.355719,467.196 Z M375.219719,441.6 L376.839719,441.6 C377.559722,439.223988 378.153716,437.262008 378.621719,435.714 C379.089721,434.165992 379.647716,432.564008 380.295719,430.908 C378.207708,429.251992 375.705733,427.956005 372.789719,427.02 C369.873704,426.083995 366.471738,425.616 362.583719,425.616 C359.343703,425.616 356.265733,426.119995 353.349719,427.128 C350.433704,428.136005 347.85973,429.61199 345.627719,431.556 C343.395708,433.50001 341.613725,435.911986 340.281719,438.792 C338.949712,441.672014 338.283719,444.983981 338.283719,448.728 C338.283719,452.832021 339.075711,456.197987 340.659719,458.826 C342.243727,461.454013 344.223707,463.667991 346.599719,465.468 C348.975731,467.268009 351.567705,468.797994 354.375719,470.058 C357.183733,471.318006 359.775707,472.613993 362.151719,473.946 C364.527731,475.278007 366.507711,476.807991 368.091719,478.536 C369.675727,480.264009 370.467719,482.495986 370.467719,485.232 C370.467719,488.256015 369.441729,490.847989 367.389719,493.008 C365.337708,495.168011 362.15174,496.248 357.831719,496.248 C355.671708,496.248 353.727727,495.942003 351.999719,495.33 C350.27171,494.717997 348.795725,493.872005 347.571719,492.792 C346.347713,491.711995 345.339723,490.470007 344.547719,489.066 C343.755715,487.661993 343.21572,486.168008 342.927719,484.584 L340.875719,484.584 C340.515717,487.032012 340.083721,489.29999 339.579719,491.388 C339.075716,493.47601 338.463722,495.779987 337.743719,498.3 C339.327727,499.524006 341.649703,500.549996 344.709719,501.378 C347.769734,502.206004 351.243699,502.62 355.131719,502.62 C359.45174,502.62 363.357701,502.062006 366.849719,500.946 C370.341736,499.829994 373.347706,498.210011 375.867719,496.086 C378.387731,493.961989 380.331712,491.406015 381.699719,488.418 C383.067726,485.429985 383.751719,482.136018 383.751719,478.536 C383.751719,474.431979 382.941727,471.066013 381.321719,468.438 C379.701711,465.809987 377.667731,463.578009 375.219719,461.742 C372.771707,459.905991 370.143733,458.358006 367.335719,457.098 C364.527705,455.837994 361.899731,454.524007 359.451719,453.156 C357.003707,451.787993 354.969727,450.258008 353.349719,448.566 C351.729711,446.873992 350.919719,444.696013 350.919719,442.032 C350.919719,439.439987 351.963708,437.17201 354.051719,435.228 C356.139729,433.28399 358.839702,432.312 362.151719,432.312 C368.559751,432.312 372.915707,435.407969 375.219719,441.6 Z M446.175719,465.468 L446.175719,471.624 C446.175719,477.60003 446.103719,482.909977 445.959719,487.554 C445.815718,492.198023 445.59972,496.751978 445.311719,501.216 C446.535725,501.071999 447.867712,501 449.307719,501 C450.747726,501 452.36771,501 454.167719,501 C455.967728,501 457.587712,501 459.027719,501 C460.467726,501 461.799713,501.071999 463.023719,501.216 C462.735717,496.751978 462.519719,492.198023 462.375719,487.554 C462.231718,482.909977 462.159719,477.60003 462.159719,471.624 L462.159719,456.936 C462.159719,450.95997 462.231718,445.650023 462.375719,441.006 C462.519719,436.361977 462.735717,431.700023 463.023719,427.02 C461.799713,427.164001 460.467726,427.289999 459.027719,427.398 C457.587712,427.506001 455.967728,427.56 454.167719,427.56 C452.36771,427.56 450.747726,427.506001 449.307719,427.398 C447.867712,427.289999 446.535725,427.164001 445.311719,427.02 C445.59972,431.700023 445.815718,436.325977 445.959719,440.898 C446.103719,445.470023 446.175719,450.74397 446.175719,456.72 C444.087708,456.792 441.819731,456.846 439.371719,456.882 C436.923707,456.918 433.755738,456.936 429.867719,456.936 C425.979699,456.936 422.721732,456.918 420.093719,456.882 C417.465706,456.846 415.215728,456.792 413.343719,456.72 C413.343719,450.74397 413.397718,445.470023 413.505719,440.898 C413.613719,436.325977 413.847717,431.700023 414.207719,427.02 C412.983713,427.164001 411.651726,427.289999 410.211719,427.398 C408.771712,427.506001 407.151728,427.56 405.351719,427.56 C403.55171,427.56 401.931726,427.506001 400.491719,427.398 C399.051712,427.289999 397.719725,427.164001 396.495719,427.02 C396.78372,431.700023 396.999718,436.361977 397.143719,441.006 C397.287719,445.650023 397.359719,450.95997 397.359719,456.936 L397.359719,471.624 C397.359719,477.60003 397.287719,482.909977 397.143719,487.554 C396.999718,492.198023 396.78372,496.751978 396.495719,501.216 C397.719725,501.071999 399.051712,501 400.491719,501 C401.931726,501 403.55171,501 405.351719,501 C407.151728,501 408.771712,501 410.211719,501 C411.651726,501 412.983713,501.071999 414.207719,501.216 C413.919717,496.751978 413.703719,492.198023 413.559719,487.554 C413.415718,482.909977 413.343719,477.60003 413.343719,471.624 L413.343719,465.468 C416.079732,465.323999 418.815705,465.216 421.551719,465.144 C424.287732,465.072 427.023705,465.036 429.759719,465.036 C432.495732,465.036 435.231705,465.089999 437.967719,465.198 C440.703732,465.306001 443.439705,465.396 446.175719,465.468 Z M481.815719,456.936 L481.815719,471.624 C481.815719,477.60003 481.743719,482.909977 481.599719,487.554 C481.455718,492.198023 481.23972,496.751978 480.951719,501.216 C482.175725,501.071999 483.507712,501 484.947719,501 C486.387726,501 488.00771,501 489.807719,501 C491.607728,501 493.227712,501 494.667719,501 C496.107726,501 497.439713,501.071999 498.663719,501.216 C498.375717,496.751978 498.159719,492.198023 498.015719,487.554 C497.871718,482.909977 497.799719,477.60003 497.799719,471.624 L497.799719,456.936 C497.799719,450.95997 497.871718,445.650023 498.015719,441.006 C498.159719,436.361977 498.375717,431.700023 498.663719,427.02 C497.439713,427.164001 496.107726,427.289999 494.667719,427.398 C493.227712,427.506001 491.607728,427.56 489.807719,427.56 C488.00771,427.56 486.387726,427.506001 484.947719,427.398 C483.507712,427.289999 482.175725,427.164001 480.951719,427.02 C481.23972,431.700023 481.455718,436.361977 481.599719,441.006 C481.743719,445.650023 481.815719,450.95997 481.815719,456.936 Z M548.559719,447.756 C548.559719,451.212017 548.055724,453.98399 547.047719,456.072 C546.039714,458.16001 544.743727,459.761994 543.159719,460.878 C541.575711,461.994006 539.829728,462.731998 537.921719,463.092 C536.013709,463.452002 534.159728,463.632 532.359719,463.632 C532.359719,458.591975 532.377719,453.570025 532.413719,448.566 C532.449719,443.561975 532.503718,438.468026 532.575719,433.284 C532.86372,433.212 533.187717,433.176 533.547719,433.176 C533.907721,433.176 534.267717,433.176 534.627719,433.176 L537.111719,433.176 C538.623726,433.176 540.081712,433.427997 541.485719,433.932 C542.889726,434.436003 544.113714,435.245994 545.157719,436.362 C546.201724,437.478006 547.029716,438.971991 547.641719,440.844 C548.253722,442.716009 548.559719,445.019986 548.559719,447.756 Z M516.375719,456.936 L516.375719,471.624 C516.375719,477.60003 516.303719,482.909977 516.159719,487.554 C516.015718,492.198023 515.79972,496.751978 515.511719,501.216 C516.735725,501.071999 518.067712,501 519.507719,501 C520.947726,501 522.56771,501 524.367719,501 C526.167728,501 527.787712,501 529.227719,501 C530.667726,501 531.999713,501.071999 533.223719,501.216 C532.863717,495.959974 532.629719,490.650027 532.521719,485.286 C532.413718,479.921973 532.359719,474.540027 532.359719,469.14 L537.867719,469.14 C541.899739,469.14 545.607702,468.708004 548.991719,467.844 C552.375736,466.979996 555.309706,465.630009 557.793719,463.794 C560.277731,461.957991 562.203712,459.564015 563.571719,456.612 C564.939726,453.659985 565.623719,450.132021 565.623719,446.028 C565.623719,442.787984 565.083724,440.016012 564.003719,437.712 C562.923713,435.407988 561.23173,433.320009 558.927719,431.448 C557.27171,430.007993 555.003733,428.910004 552.123719,428.154 C549.243704,427.397996 545.247744,427.02 540.135719,427.02 C537.543706,427.02 534.897732,427.109999 532.197719,427.29 C529.497705,427.470001 526.887731,427.56 524.367719,427.56 C522.56771,427.56 520.947726,427.506001 519.507719,427.398 C518.067712,427.289999 516.735725,427.164001 515.511719,427.02 C515.79972,431.700023 516.015718,436.361977 516.159719,441.006 C516.303719,445.650023 516.375719,450.95997 516.375719,456.936 Z M226.740329,392.012 L225.336329,391.148 C224.184324,392.372006 222.834337,393.487995 221.286329,394.496 C219.738322,395.504005 218.100338,396.349997 216.372329,397.034 C214.644321,397.718003 212.880338,398.257998 211.080329,398.654 C209.28032,399.050002 207.516338,399.248 205.788329,399.248 C202.692314,399.248 199.614345,398.672006 196.554329,397.52 C193.494314,396.367994 190.758341,394.550012 188.346329,392.066 C185.934317,389.581988 183.972337,386.37802 182.460329,382.454 C180.948322,378.52998 180.192329,373.796028 180.192329,368.252 C180.192329,362.491971 180.930322,357.542021 182.406329,353.402 C183.882337,349.261979 185.808318,345.860013 188.184329,343.196 C190.560341,340.531987 193.206315,338.552006 196.122329,337.256 C199.038344,335.959994 201.936315,335.312 204.816329,335.312 C208.704349,335.312 212.088315,336.049993 214.968329,337.526 C217.848344,339.002007 220.656316,341.467983 223.392329,344.924 L224.904329,344.924 C225.04833,343.051991 225.318327,341.198009 225.714329,339.362 C226.110331,337.525991 226.668326,335.708009 227.388329,333.908 C226.164323,333.187996 224.670338,332.504003 222.906329,331.856 C221.142321,331.207997 219.288339,330.650002 217.344329,330.182 C215.40032,329.713998 213.38434,329.336001 211.296329,329.048 C209.208319,328.759999 207.228339,328.616 205.356329,328.616 C199.668301,328.616 194.232355,329.371992 189.048329,330.884 C183.864304,332.396008 179.310349,334.789984 175.386329,338.066 C171.46231,341.342016 168.330341,345.589974 165.990329,350.81 C163.650318,356.030026 162.480329,362.383963 162.480329,369.872 C162.480329,374.984026 163.38032,379.735978 165.180329,384.128 C166.980338,388.520022 169.590312,392.317984 173.010329,395.522 C176.430347,398.726016 180.606305,401.209991 185.538329,402.974 C190.470354,404.738009 196.068298,405.62 202.332329,405.62 C211.188374,405.62 218.5323,404.144015 224.364329,401.192 C224.50833,399.679992 224.796327,398.150008 225.228329,396.602 C225.660332,395.053992 226.164327,393.524008 226.740329,392.012 Z M258.168329,350.324 C259.896338,354.644022 261.534322,358.909979 263.082329,363.122 C264.630337,367.334021 266.196322,371.635978 267.780329,376.028 L248.016329,376.028 C249.600337,371.635978 251.220321,367.334021 252.876329,363.122 C254.532338,358.909979 256.29632,354.644022 258.168329,350.324 Z M296.400329,404.216 C294.312319,400.039979 292.008342,394.92803 289.488329,388.88 C286.968317,382.83197 284.376343,376.442034 281.712329,369.71 C279.048316,362.977966 276.402343,356.120035 273.774329,349.136 C271.146316,342.151965 268.680341,335.600031 266.376329,329.48 C265.656326,329.624001 264.972333,329.749999 264.324329,329.858 C263.676326,329.966001 262.992333,330.02 262.272329,330.02 C261.552326,330.02 260.868333,329.966001 260.220329,329.858 C259.572326,329.749999 258.888333,329.624001 258.168329,329.48 C256.584322,333.584021 254.838339,338.011976 252.930329,342.764 C251.02232,347.516024 249.078339,352.339976 247.098329,357.236 C245.11832,362.132024 243.138339,366.973976 241.158329,371.762 C239.17832,376.550024 237.324338,381.031979 235.596329,385.208 C233.868321,389.384021 232.284337,393.127983 230.844329,396.44 C229.404322,399.752017 228.252334,402.343991 227.388329,404.216 C228.396334,404.071999 229.332325,404 230.196329,404 C231.060334,404 231.924325,404 232.788329,404 C233.652334,404 234.498325,404 235.326329,404 C236.154334,404 237.000325,404.071999 237.864329,404.216 C238.872334,400.687982 239.988323,397.088018 241.212329,393.416 C242.436336,389.743982 243.768322,386.072018 245.208329,382.4 C247.080339,382.328 248.95232,382.274 250.824329,382.238 C252.696339,382.202 254.56832,382.184 256.440329,382.184 C258.744341,382.184 261.048318,382.202 263.352329,382.238 C265.656341,382.274 267.960318,382.328 270.264329,382.4 C271.632336,386.072018 272.928323,389.743982 274.152329,393.416 C275.376336,397.088018 276.564324,400.687982 277.716329,404.216 C279.228337,404.071999 280.758322,404 282.306329,404 C283.854337,404 285.384322,404 286.896329,404 C288.408337,404 289.938322,404 291.486329,404 C293.034337,404 294.672321,404.071999 296.400329,404.216 Z M312.276329,347.624 L312.276329,374.624 C312.276329,380.60003 312.20433,385.909977 312.060329,390.554 C311.916329,395.198023 311.700331,399.751978 311.412329,404.216 C312.636336,404.071999 313.968322,404 315.408329,404 C316.848337,404 318.46832,404 320.268329,404 C322.068338,404 323.688322,404 325.128329,404 C326.568337,404 327.900323,404.071999 329.124329,404.216 C328.836328,399.751978 328.62033,395.198023 328.476329,390.554 C328.332329,385.909977 328.260329,380.60003 328.260329,374.624 L328.260329,347.624 L328.260329,341.9 C328.260329,341.035996 328.278329,340.280003 328.314329,339.632 C328.35033,338.983997 328.404329,338.480002 328.476329,338.12 C329.556335,338.12 330.888322,338.156 332.472329,338.228 C334.056337,338.3 335.730321,338.389999 337.494329,338.498 C339.258338,338.606001 341.04032,338.749999 342.840329,338.93 C344.640338,339.110001 346.260322,339.307999 347.700329,339.524 C347.556329,338.731996 347.43033,337.940004 347.322329,337.148 C347.214329,336.355996 347.160329,335.564004 347.160329,334.772 C347.160329,333.979996 347.214329,333.188004 347.322329,332.396 C347.43033,331.603996 347.556329,330.812004 347.700329,330.02 C345.468318,330.092 343.398339,330.164 341.490329,330.236 C339.58232,330.308 337.62034,330.362 335.604329,330.398 C333.588319,330.434 331.374341,330.47 328.962329,330.506 C326.550317,330.542 323.652346,330.56 320.268329,330.56 C316.884313,330.56 313.986341,330.542 311.574329,330.506 C309.162317,330.47 306.93034,330.434 304.878329,330.398 C302.826319,330.362 300.810339,330.308 298.830329,330.236 C296.85032,330.164 294.636342,330.092 292.188329,330.02 C292.33233,330.812004 292.458329,331.603996 292.566329,332.396 C292.67433,333.188004 292.728329,333.979996 292.728329,334.772 C292.728329,335.564004 292.67433,336.355996 292.566329,337.148 C292.458329,337.940004 292.33233,338.731996 292.188329,339.524 C293.772337,339.307999 295.50032,339.110001 297.372329,338.93 C299.244339,338.749999 301.08032,338.606001 302.880329,338.498 C304.680338,338.389999 306.372322,338.3 307.956329,338.228 C309.540337,338.156 310.872324,338.12 311.952329,338.12 C312.09633,338.912004 312.186329,340.171991 312.222329,341.9 C312.25833,343.628009 312.276329,345.53599 312.276329,347.624 Z M358.608329,359.936 L358.608329,374.624 C358.608329,380.60003 358.53633,385.909977 358.392329,390.554 C358.248329,395.198023 358.032331,399.751978 357.744329,404.216 C358.320332,404.144 359.022325,404.09 359.850329,404.054 C360.678334,404.018 361.902321,404 363.522329,404 C365.142338,404 367.284316,404 369.948329,404 C372.684343,404 376.248307,404 380.640329,404 C385.608354,404 389.514315,404.018 392.358329,404.054 C395.202344,404.09 397.59632,404.144 399.540329,404.216 C399.396329,403.783998 399.28833,403.244003 399.216329,402.596 C399.144329,401.947997 399.108329,401.048006 399.108329,399.896 C399.108329,398.743994 399.144329,397.844003 399.216329,397.196 C399.28833,396.547997 399.396329,395.828004 399.540329,395.036 C395.364309,395.540003 391.22435,395.899999 387.120329,396.116 C383.016309,396.332001 378.91235,396.44 374.808329,396.44 C374.592328,392.119978 374.484329,387.620023 374.484329,382.94 C374.484329,380.635988 374.502329,378.332012 374.538329,376.028 C374.57433,373.723988 374.592329,371.420012 374.592329,369.116 C382.72837,369.116 390.900288,369.439997 399.108329,370.088 C398.964329,368.935994 398.83833,368.054003 398.730329,367.442 C398.622329,366.829997 398.568329,366.236003 398.568329,365.66 C398.568329,364.939996 398.604329,364.256003 398.676329,363.608 C398.74833,362.959997 398.892328,362.024006 399.108329,360.8 C395.004309,361.016001 391.062348,361.195999 387.282329,361.34 C383.502311,361.484001 379.272353,361.592 374.592329,361.664 C374.592329,357.70398 374.610329,353.780019 374.646329,349.892 C374.68233,346.003981 374.844328,342.08002 375.132329,338.12 C375.924333,338.12 377.25632,338.156 379.128329,338.228 C381.000339,338.3 383.106318,338.407999 385.446329,338.552 C387.786341,338.696001 390.198317,338.839999 392.682329,338.984 C395.166342,339.128001 397.452319,339.271999 399.540329,339.416 C399.396329,338.623996 399.28833,337.904003 399.216329,337.256 C399.144329,336.607997 399.108329,335.708006 399.108329,334.556 C399.108329,332.683991 399.252328,331.172006 399.540329,330.02 C398.100322,330.164001 395.31035,330.289999 391.170329,330.398 C387.030309,330.506001 382.296356,330.56 376.968329,330.56 C373.728313,330.56 370.524345,330.488001 367.356329,330.344 C364.188314,330.199999 360.984346,330.092 357.744329,330.02 C358.032331,334.700023 358.248329,339.361977 358.392329,344.006 C358.53633,348.650023 358.608329,353.95997 358.608329,359.936 Z M414.552329,351.512 C414.552329,356.984027 414.46233,362.68997 414.282329,368.63 C414.102329,374.57003 413.886331,380.077975 413.634329,385.154 C413.382328,390.230025 413.148331,394.531982 412.932329,398.06 C412.716328,401.588018 412.53633,403.639997 412.392329,404.216 C414.048338,404.071999 415.704321,404 417.360329,404 C418.152333,404 418.980325,404 419.844329,404 C420.708334,404 421.572325,404.071999 422.436329,404.216 C422.364329,403.423996 422.29233,402.362007 422.220329,401.03 C422.148329,399.697993 422.07633,397.98801 422.004329,395.9 C421.932329,393.81199 421.87833,391.256015 421.842329,388.232 C421.806329,385.207985 421.788329,381.536022 421.788329,377.216 L421.788329,364.688 C421.788329,362.527989 421.806329,360.40401 421.842329,358.316 C421.87833,356.22799 421.932329,354.14001 422.004329,352.052 C438.636413,369.548087 454.368255,386.935914 469.200329,404.216 C470.424336,404.071999 471.828322,404 473.412329,404 C474.924337,404 476.400322,404.071999 477.840329,404.216 L477.840329,391.256 C477.840329,386.071974 477.858329,381.194023 477.894329,376.622 C477.93033,372.049977 478.020329,367.424023 478.164329,362.744 C478.30833,358.063977 478.488328,353.078026 478.704329,347.786 C478.920331,342.493974 479.208328,336.572033 479.568329,330.02 C477.552319,330.380002 475.932336,330.56 474.708329,330.56 C473.484323,330.56 471.86434,330.380002 469.848329,330.02 C469.99233,330.740004 470.118329,332.14399 470.226329,334.232 C470.33433,336.32001 470.406329,338.803986 470.442329,341.684 C470.47833,344.564014 470.514329,347.713983 470.550329,351.134 C470.58633,354.554017 470.604329,358.027982 470.604329,361.556 L470.604329,372.032 L470.604329,381.428 C462.540289,372.715956 454.674368,364.148042 447.006329,355.724 C439.338291,347.299958 431.580369,338.732044 423.732329,330.02 C421.716319,330.380002 420.096336,330.56 418.872329,330.56 C417.648323,330.56 416.02834,330.380002 414.012329,330.02 C414.08433,332.612013 414.192329,335.599983 414.336329,338.984 C414.48033,342.368017 414.552329,346.543975 414.552329,351.512 Z" id="合併形狀" fill="#24292E"></path>
    </g>
</svg>