<?xml version="1.0" encoding="UTF-8"?>
<svg width="360px" height="360px" viewBox="0 0 360 360" version="1.1" xmlns="http://www.w3.org/2000/svg" xmlns:xlink="http://www.w3.org/1999/xlink">
    <!-- Generator: Sketch 55.2 (78181) - https://sketchapp.com -->
    <title>CatenMusicLogo</title>
    <desc>Created with Sketch.</desc>
    <g id="Page-1" stroke="none" stroke-width="1" fill="none" fill-rule="evenodd">
        <path d="M157.656406,358.626825 C68.7886879,347.624114 0,271.845286 0,180 C0,80.588745 80.588745,0 180,0 C279.411255,0 360,80.588745 360,180 C360,276.774201 283.630057,355.711245 187.870276,359.83103 C189.203863,359.662652 190.543049,359.465225 191.886749,359.238184 C229.904661,352.833945 257.758258,325.062356 256.45042,296.00688 C256.800641,294.415538 256.864776,292.719207 256.527716,291.016168 L222.389697,122.157125 C231.743202,123.995218 247.686028,129.420351 269.107316,145.162107 C304.722533,171.37039 316.87858,203.657302 316.87858,203.657302 C333.182501,171.960612 302.548776,127.937603 278.849809,111.458562 C262.301046,99.9498273 228.971332,75.9791077 210.342114,62.5395175 L203.842495,30.3627436 C202.576681,24.1149493 196.673695,20.1634582 190.636784,21.5688251 C184.600959,22.958734 180.741513,29.1606267 182.008438,35.4100178 L226.359584,254.797967 C212.282431,248.096823 194.582905,245.498101 175.970946,248.643034 C136.112925,255.352603 107.351185,285.569218 111.747298,316.107031 C114.820011,337.438754 133.24621,353.294756 157.656425,358.626829 Z" id="合併形狀" fill="#FFFFFF"></path>
    </g>
</svg>